<mxfile host="app.diagrams.net" agent="Mozilla/5.0 (Windows NT 10.0; Win64; x64) AppleWebKit/537.36 (KHTML, like Gecko) Chrome/135.0.0.0 Safari/537.36" version="26.2.14" pages="2">
  <diagram name="Seite-1" id="brHfvJ5R7uQ1hMulMaNT">
    <mxGraphModel dx="1434" dy="748" grid="1" gridSize="10" guides="1" tooltips="1" connect="1" arrows="1" fold="1" page="1" pageScale="1" pageWidth="1169" pageHeight="827" math="0" shadow="0">
      <root>
        <mxCell id="0" />
        <mxCell id="1" parent="0" />
        <mxCell id="Atl1cRMkuKxqZZkStQHK-4" value="" style="edgeStyle=orthogonalEdgeStyle;rounded=0;orthogonalLoop=1;jettySize=auto;html=1;" edge="1" parent="1" source="Atl1cRMkuKxqZZkStQHK-2" target="Atl1cRMkuKxqZZkStQHK-3">
          <mxGeometry relative="1" as="geometry">
            <Array as="points">
              <mxPoint x="580" y="160" />
              <mxPoint x="1010" y="160" />
            </Array>
          </mxGeometry>
        </mxCell>
        <mxCell id="Atl1cRMkuKxqZZkStQHK-7" style="edgeStyle=orthogonalEdgeStyle;rounded=0;orthogonalLoop=1;jettySize=auto;html=1;entryX=0.5;entryY=0;entryDx=0;entryDy=0;" edge="1" parent="1" source="Atl1cRMkuKxqZZkStQHK-2" target="Atl1cRMkuKxqZZkStQHK-5">
          <mxGeometry relative="1" as="geometry">
            <Array as="points">
              <mxPoint x="580" y="160" />
              <mxPoint x="150" y="160" />
            </Array>
          </mxGeometry>
        </mxCell>
        <mxCell id="Atl1cRMkuKxqZZkStQHK-2" value="Program start" style="ellipse;whiteSpace=wrap;html=1;" vertex="1" parent="1">
          <mxGeometry x="520" y="40" width="120" height="80" as="geometry" />
        </mxCell>
        <mxCell id="Atl1cRMkuKxqZZkStQHK-12" value="" style="edgeStyle=orthogonalEdgeStyle;rounded=0;orthogonalLoop=1;jettySize=auto;html=1;" edge="1" parent="1" source="Atl1cRMkuKxqZZkStQHK-3" target="Atl1cRMkuKxqZZkStQHK-10">
          <mxGeometry relative="1" as="geometry" />
        </mxCell>
        <mxCell id="Atl1cRMkuKxqZZkStQHK-3" value="send" style="whiteSpace=wrap;html=1;" vertex="1" parent="1">
          <mxGeometry x="960" y="200" width="100" height="40" as="geometry" />
        </mxCell>
        <mxCell id="Atl1cRMkuKxqZZkStQHK-5" value="receive" style="whiteSpace=wrap;html=1;" vertex="1" parent="1">
          <mxGeometry x="100" y="200" width="100" height="40" as="geometry" />
        </mxCell>
        <mxCell id="Atl1cRMkuKxqZZkStQHK-15" value="" style="edgeStyle=orthogonalEdgeStyle;rounded=0;orthogonalLoop=1;jettySize=auto;html=1;" edge="1" parent="1" source="Atl1cRMkuKxqZZkStQHK-10" target="Atl1cRMkuKxqZZkStQHK-14">
          <mxGeometry relative="1" as="geometry" />
        </mxCell>
        <mxCell id="Atl1cRMkuKxqZZkStQHK-10" value="convert file to byte array" style="shape=card;whiteSpace=wrap;html=1;size=20;" vertex="1" parent="1">
          <mxGeometry x="925" y="280" width="170" height="60" as="geometry" />
        </mxCell>
        <mxCell id="Atl1cRMkuKxqZZkStQHK-14" value="prepare packages" style="shape=card;whiteSpace=wrap;html=1;size=20;" vertex="1" parent="1">
          <mxGeometry x="925" y="390" width="170" height="60" as="geometry" />
        </mxCell>
      </root>
    </mxGraphModel>
  </diagram>
  <diagram id="UQQjFP1HwKIz8iqlp97c" name="Seite-2">
    <mxGraphModel dx="1707" dy="890" grid="1" gridSize="10" guides="1" tooltips="1" connect="1" arrows="1" fold="1" page="1" pageScale="1" pageWidth="1169" pageHeight="827" math="0" shadow="0">
      <root>
        <mxCell id="0" />
        <mxCell id="1" parent="0" />
        <mxCell id="sP12yn89YAYYB43JdWfo-1" value="Package structure" style="ellipse;whiteSpace=wrap;html=1;" vertex="1" parent="1">
          <mxGeometry x="440" y="40" width="290" height="70" as="geometry" />
        </mxCell>
        <mxCell id="sP12yn89YAYYB43JdWfo-2" value="" style="rounded=0;whiteSpace=wrap;html=1;" vertex="1" parent="1">
          <mxGeometry x="80" y="200" width="160" height="40" as="geometry" />
        </mxCell>
        <mxCell id="sP12yn89YAYYB43JdWfo-3" value="" style="endArrow=classic;startArrow=classic;html=1;rounded=0;" edge="1" parent="1">
          <mxGeometry width="50" height="50" relative="1" as="geometry">
            <mxPoint x="80" y="180" as="sourcePoint" />
            <mxPoint x="240" y="180" as="targetPoint" />
          </mxGeometry>
        </mxCell>
        <mxCell id="sP12yn89YAYYB43JdWfo-4" value="&amp;nbsp;1 byte&amp;nbsp;&amp;nbsp;" style="edgeLabel;html=1;align=center;verticalAlign=middle;resizable=0;points=[];" vertex="1" connectable="0" parent="sP12yn89YAYYB43JdWfo-3">
          <mxGeometry x="-0.0042" relative="1" as="geometry">
            <mxPoint as="offset" />
          </mxGeometry>
        </mxCell>
        <mxCell id="sP12yn89YAYYB43JdWfo-5" value="" style="rounded=0;whiteSpace=wrap;html=1;" vertex="1" parent="1">
          <mxGeometry x="240" y="200" width="80" height="40" as="geometry" />
        </mxCell>
        <mxCell id="sP12yn89YAYYB43JdWfo-6" value="" style="rounded=0;whiteSpace=wrap;html=1;" vertex="1" parent="1">
          <mxGeometry x="320" y="200" width="440" height="40" as="geometry" />
        </mxCell>
      </root>
    </mxGraphModel>
  </diagram>
</mxfile>
